<svg xmlns="http://www.w3.org/2000/svg" xmlns:xlink="http://www.w3.org/1999/xlink" width="458" height="305" viewBox="0 0 458 305">
    <defs>
        <path id="a" d="M.051.005H27v8.172H.052z"/>
        <path id="c" d="M.03.996H12v20.146H.03z"/>
        <path id="e" d="M.176.426H100v99.475H.176z"/>
        <path id="g" d="M.575.422H67v70.48H.575z"/>
        <path id="i" d="M.008 140h287V0h-287z"/>
        <path id="k" d="M.6.621H82v77.758H.6z"/>
        <path id="m" d="M0 .231h31.978v79.727H0z"/>
        <path id="o" d="M0 .231H31.98v79.727H.001z"/>
    </defs>
    <g fill="none" fill-rule="evenodd" opacity=".535" style="mix-blend-mode:screen">
        <path fill="#535353" d="M268.284 109.585H458V.743H268.284z"/>
        <path fill="#E7E7E7" d="M272.757 104.901H458V5.426H272.757z"/>
        <path fill="#EFEFEF" d="M391.43 58.553h-27.264c-5.91 0-5.91 8.172 0 8.172h27.263c5.91 0 5.91-8.172 0-8.172"/>
        <path fill="#EFEFEF" d="M360.644 53.622a6.551 6.551 0 1 0 0 13.104 6.551 6.551 0 0 0 0-13.104M382.5 49.11a8.33 8.33 0 1 0 0 16.66 8.33 8.33 0 0 0 0-16.66"/>
        <path fill="#EFEFEF" d="M370.81 42.544c-5.563 0-10.073 4.51-10.073 10.073 0 5.563 4.51 10.073 10.073 10.073 5.563 0 10.073-4.51 10.073-10.073 0-5.563-4.51-10.073-10.073-10.073M295.462 26.824h-22.705v8.172h22.705c5.91 0 5.91-8.172 0-8.172"/>
        <path fill="#EFEFEF" d="M286.534 17.38a8.33 8.33 0 1 0 0 16.66 8.33 8.33 0 0 0 0-16.66"/>
        <path fill="#EFEFEF" d="M274.843 10.814c-.715 0-1.413.075-2.086.217v19.713c.673.141 1.371.216 2.086.216 5.563 0 10.073-4.51 10.073-10.073 0-5.563-4.51-10.073-10.073-10.073"/>
        <g transform="translate(431 32)">
            <mask id="b" fill="#fff">
                <use xlink:href="#a"/>
            </mask>
            <path fill="#EFEFEF" d="M4.484.005h26.57v8.172H4.484c-5.91 0-5.91-8.172 0-8.172" mask="url(#b)"/>
        </g>
        <path fill="#EFEFEF" d="M444.413 22.562a8.33 8.33 0 1 1 0 16.66 8.33 8.33 0 0 1 0-16.66"/>
        <g transform="translate(446 15)">
            <mask id="d" fill="#fff">
                <use xlink:href="#c"/>
            </mask>
            <path fill="#EFEFEF" d="M10.103.996c2.226 0 4.284.723 5.951 1.946v16.255a10.033 10.033 0 0 1-5.95 1.945C4.54 21.142.03 16.632.03 11.069.03 5.506 4.54.996 10.103.996" mask="url(#d)"/>
        </g>
        <g transform="translate(358 5)">
            <mask id="f" fill="#fff">
                <use xlink:href="#e"/>
            </mask>
            <path fill="#FFF" d="M99.65.426h4.405v12.486l-86.99 86.99H.175z" mask="url(#f)"/>
        </g>
        <path fill="#FFF" d="M412.295 5.426h25.694l-99.475 99.475H312.82zM380.14 5.426h16.888l-99.475 99.475h-16.889zM352.412 5.426h9.327l-88.982 88.982v-9.327z"/>
        <g transform="translate(391 34)">
            <mask id="h" fill="#fff">
                <use xlink:href="#g"/>
            </mask>
            <path fill="#FFF" d="M71.054.422V9.75L9.901 70.901H.575z" mask="url(#h)"/>
        </g>
        <path fill="#535353" d="M331.984 109.585h4.473V.743h-4.473zM398.355 109.585h4.473V.743h-4.473z"/>
        <g transform="translate(204 -12)">
            <path fill="#535353" d="M132.168 316.92h2.78a5.005 5.005 0 0 0 0-10.01h-2.78a5.005 5.005 0 0 0 0 10.01"/>
            <path fill="#B1B1B1" d="M145.798 264.65v45.228h-24.197v-53.754c0-11.122 14.297-36.497 28.668-21.194 9.501 10.117-4.471 19.34-4.471 29.72"/>
            <mask id="j" fill="#fff">
                <use xlink:href="#i"/>
            </mask>
            <path fill="#535353" d="M-149.513 144.101H29.198v-5.94h-178.711z" mask="url(#j)"/>
            <path fill="#818181" d="M12.017 110.037C.86 122.824 3.136 133.465 5.16 137.577c-1.283-.318-3.28-8.34-1.196-15.04 1.198-3.852 5.976-11.777 8.053-12.5" mask="url(#j)"/>
            <path fill="#787878" d="M13.219 109.444c-.128-1.562.68-4.449 6.7-4.923-2.251 5.603-5.248 5.512-6.7 4.923M9.566 110.878c-1.37-.76-3.325-3.033-.382-8.305 3.414 4.98 1.677 7.423.382 8.305" mask="url(#j)"/>
            <path fill="#818181" d="M10.881 114.148c.412-1.512 2.158-3.95 7.978-2.34-4.029 4.498-6.814 3.39-7.978 2.34M5.768 116.435c-1.561-.145-4.262-1.444-3.681-7.454 5.125 3.19 4.514 6.127 3.681 7.454" mask="url(#j)"/>
            <path fill="#787878" d="M7.003 119.73c.321-1.534 1.918-4.071 7.823-2.813-3.752 4.73-6.599 3.79-7.823 2.813M2.531 122.513c-1.56-.145-4.262-1.444-3.68-7.454 5.124 3.192 4.513 6.127 3.68 7.454" mask="url(#j)"/>
            <path fill="#818181" d="M5.16 126.764c-.098-1.564.77-4.434 6.797-4.788-2.363 5.557-5.357 5.406-6.797 4.788" mask="url(#j)"/>
            <path fill="#787878" d="M1.855 130.192c-1.549.243-4.487-.353-5.398-6.323 5.752 1.838 5.88 4.833 5.398 6.323M4.65 133.072c-.193-1.555.496-4.473 6.491-5.193-2.019 5.69-5.017 5.722-6.492 5.193" mask="url(#j)"/>
            <path stroke="#787878" stroke-width=".092" d="M4.65 133.072c-.193-1.555.496-4.473 6.491-5.193-2.019 5.69-5.017 5.722-6.492 5.193z" mask="url(#j)"/>
            <path fill="#818181" d="M3.375 137.334c-1.477.524-4.474.48-6.473-5.216 5.99.742 6.67 3.66 6.473 5.216" mask="url(#j)"/>
            <path fill="#9E9E9E" d="M3.779 112.982c-3.167 12.259 1.908 18.597 4.632 20.663-.962.216-4.975-4.468-5.826-9.634-.488-2.969.05-9.853 1.194-11.029" mask="url(#j)"/>
            <path fill="#8E8E8E" d="M4.382 112.184c-.608-.998-1.033-3.194 2.823-5.522.372 4.49-1.657 5.43-2.823 5.522" mask="url(#j)"/>
            <path fill="#9E9E9E" d="M2.425 114.362c-1.169-.048-3.232-.91-3.031-5.412 3.942 2.18 3.6 4.391 3.031 5.412" mask="url(#j)"/>
            <path fill="#8E8E8E" d="M4.396 116.104c-.231-1.146.119-3.356 4.538-4.228-1.182 4.347-3.411 4.539-4.538 4.228" mask="url(#j)"/>
            <path fill="#9E9E9E" d="M1.75 119.338c-1.09.425-3.327.461-4.949-3.742 4.486.416 5.06 2.578 4.948 3.742M3.675 121.123c-.3-1.13-.082-3.357 4.278-4.492-.921 4.41-3.134 4.735-4.278 4.492" mask="url(#j)"/>
            <path fill="#8E8E8E" d="M1.622 124.475c-1.089.425-3.326.462-4.947-3.742 4.485.416 5.059 2.578 4.947 3.742M4.796 126.432c-.588-1.011-.969-3.215 2.933-5.466.282 4.496-1.766 5.397-2.933 5.466" mask="url(#j)"/>
            <path fill="#9E9E9E" d="M3.738 129.824c-.952.679-3.11 1.264-5.715-2.413 4.451-.698 5.538 1.257 5.715 2.413" mask="url(#j)"/>
            <path fill="#8E8E8E" d="M6.564 130.81c-.648-.973-1.163-3.15 2.594-5.634.556 4.47-1.433 5.494-2.594 5.634" mask="url(#j)"/>
            <path fill="#9E9E9E" d="M7.139 134.08c-.81.843-2.824 1.816-6.062-1.316 4.245-1.509 5.675.212 6.062 1.315" mask="url(#j)"/>
            <path fill="#CFCFCF" d="M-4.637 120.422C-6.52 126.79-4.8 133.877-.29 138.205h18.112c4.51-4.328 6.23-11.414 4.348-17.783H-4.637z" mask="url(#j)"/>
            <path fill="#B1B1B1" d="M22.58 120.59H-4.625a1.068 1.068 0 0 1-1.065-1.065c0-.586.48-1.065 1.065-1.065H22.58c.585 0 1.064.48 1.064 1.064v.001c0 .585-.48 1.064-1.064 1.064" mask="url(#j)"/>
            <path fill="#818181" d="M31.928 147.827c-2.026-21.11-13.64-28.186-19.112-29.88 1.392-.891 10.389 4.188 14.682 11.834 2.468 4.395 5.558 15.54 4.43 18.046" mask="url(#j)"/>
            <path fill="#787878" d="M31.434 149.427c1.529 1.225 3.454 4.44-1.286 10.31-3.152-6.856-.496-9.498 1.286-10.31M33.27 144.88c1.866-.593 5.608-.414 7.867 6.786-7.453-1.177-8.18-4.853-7.867-6.786" mask="url(#j)"/>
            <path fill="#818181" d="M29.171 143.265c1.02 1.673 1.732 5.351-4.728 9.252-.623-7.52 2.776-9.097 4.728-9.252M31.487 136.66c1.472-1.293 4.972-2.63 9.93 3.06-7.3 1.911-9.44-1.165-9.93-3.06" mask="url(#j)"/>
            <path fill="#787878" d="M27.435 134.95c1.117 1.61 2.048 5.238-4.167 9.518-1.071-7.469 2.227-9.247 4.167-9.518M28.75 128.5c1.471-1.293 4.971-2.63 9.928 3.06-7.3 1.911-9.44-1.165-9.929-3.06" mask="url(#j)"/>
            <path fill="#818181" d="M22.633 127.235c1.504 1.255 3.365 4.507-1.491 10.283-3.015-6.918-.307-9.507 1.49-10.283" mask="url(#j)"/>
            <path fill="#787878" d="M22.359 121.29c1.11-1.615 4.175-3.77 10.377.53-6.608 3.644-9.437 1.188-10.377-.53M17.345 121.353c1.577 1.161 3.633 4.293-.862 10.354-3.43-6.72-.885-9.47.862-10.354" mask="url(#j)"/>
            <path stroke="#787878" stroke-width=".092" d="M17.345 121.353c1.577 1.161 3.633 4.293-.862 10.354-3.43-6.72-.885-9.47.862-10.354z" mask="url(#j)"/>
            <path fill="#818181" d="M14.57 116.536c.794-1.791 3.408-4.475 10.297-1.396-5.82 4.802-9.055 2.91-10.296 1.396" mask="url(#j)"/>
            <path fill="#818181" d="M40.512 114.427c-16.243-4.91-25.008 1.54-27.924 5.075-.237-1.3 6.255-6.419 13.219-7.276 4.003-.492 13.192.605 14.705 2.201" mask="url(#j)"/>
            <path fill="#787878" d="M41.547 115.279c1.37-.76 4.335-1.21 7.242 4.083-6.032.252-7.182-2.517-7.242-4.083M38.738 112.54c.128-1.563 1.397-4.279 7.413-3.765-3.135 5.16-6.077 4.582-7.413 3.764" mask="url(#j)"/>
            <path fill="#818181" d="M36.298 115.083c1.548-.246 4.487.343 5.414 6.31-5.757-1.823-5.892-4.818-5.414-6.31M32.11 111.362c-.508-1.482-.435-4.479 5.282-6.42-.802 5.983-3.73 6.634-5.281 6.42" mask="url(#j)"/>
            <path fill="#787878" d="M29.615 113.843c1.53-.338 4.5.074 5.781 5.975-5.855-1.475-6.169-4.457-5.78-5.975M25.239 110.912c-.51-1.482-.436-4.48 5.28-6.421-.801 5.984-3.728 6.635-5.28 6.42" mask="url(#j)"/>
            <path fill="#818181" d="M22.445 115.056c1.386-.732 4.358-1.123 7.16 4.226-6.037.132-7.13-2.66-7.16-4.226" mask="url(#j)"/>
            <path fill="#787878" d="M17.96 113.453c-.857-1.312-1.521-4.235 3.544-7.52.692 5.997-1.986 7.346-3.543 7.52M16.486 117.184c1.339-.815 4.28-1.386 7.404 3.782-6.018.5-7.28-2.22-7.404-3.782" mask="url(#j)"/>
            <path stroke="#787878" stroke-width=".092" d="M16.486 117.184c1.339-.815 4.28-1.386 7.404 3.782-6.018.5-7.28-2.22-7.404-3.782z" mask="url(#j)"/>
            <path fill="#818181" d="M12.077 117.775c-1.085-1.13-2.28-3.88 2.092-8.046 1.788 5.767-.594 7.587-2.092 8.046" mask="url(#j)"/>
            <path fill="#9E9E9E" d="M43.576 139.643c-11.103-20.356-25.82-22.48-32.048-21.835 1.016-1.494 12.244-.25 19.844 5.592 4.368 3.36 12.262 13.238 12.204 16.243" mask="url(#j)"/>
            <path fill="#8E8E8E" d="M43.767 141.464c2.063.575 5.379 2.978 3.135 10.918-6.114-5.54-4.578-9.337-3.135-10.918" mask="url(#j)"/>
            <path fill="#9E9E9E" d="M43.66 136.103c1.621-1.398 5.461-2.825 10.824 3.444-8 2.018-10.309-1.366-10.825-3.444" mask="url(#j)"/>
            <path fill="#8E8E8E" d="M38.845 136.24c1.743 1.245 4.04 4.637-.78 11.333-3.856-7.294-1.116-10.34.78-11.333" mask="url(#j)"/>
            <path fill="#9E9E9E" d="M38.337 128.603c.925-1.93 3.87-4.779 11.297-1.187-6.518 5.057-9.991 2.883-11.297 1.187M33.528 128.626c1.814 1.138 4.31 4.387-.1 11.359-4.286-7.05-1.733-10.253.1-11.36" mask="url(#j)"/>
            <path fill="#8E8E8E" d="M32.08 121.576c.925-1.931 3.87-4.78 11.297-1.187-6.519 5.057-9.992 2.883-11.297 1.187M25.387 122.931c2.05.616 5.319 3.086 2.917 10.98-6.003-5.66-4.391-9.427-2.917-10.98" mask="url(#j)"/>
            <path fill="#9E9E9E" d="M22.558 117.07c.423-2.098 2.579-5.581 10.66-3.922-5.078 6.5-8.977 5.247-10.66 3.923" mask="url(#j)"/>
            <path fill="#8E8E8E" d="M17.544 119.288c2.085.49 5.497 2.756 3.581 10.781-6.337-5.284-4.958-9.14-3.58-10.78" mask="url(#j)"/>
            <path fill="#9E9E9E" d="M12.686 115.636c.028-2.14 1.503-5.963 9.752-5.826-3.79 7.328-7.854 6.816-9.752 5.826" mask="url(#j)"/>
        </g>
        <g transform="translate(376 221)">
            <mask id="l" fill="#fff">
                <use xlink:href="#k"/>
            </mask>
            <path fill="#535353" d="M47.477 48.154h46.266V.621H47.477z" mask="url(#l)"/>
            <path fill="#D6D6D6" d="M49.305 45.924h42.894V3.03H49.305z" mask="url(#l)"/>
            <path fill="#535353" d="M.6 48.154h46.877V.621H.6z" mask="url(#l)"/>
            <path fill="#F9F9F9" d="M3.039 45.924h42.894V3.03H3.039z" mask="url(#l)"/>
            <path fill="#535353" d="M41.708 8.605a1.31 1.31 0 1 0-2.62 0 1.31 1.31 0 0 0 2.62 0M6.379 51.236h129.59v-3.571H6.379z" mask="url(#l)"/>
            <path fill="#535353" d="M20.512 78.307h3.831V51.235h-3.831zM12.052 78.379h4.023V51.236h-4.023z" mask="url(#l)"/>
        </g>
        <g>
            <path fill="#929292" d="M22.792 61.129h8.215V12.455h-8.215z"/>
            <path fill="#787878" d="M25.866 57.786h2.066v-38.77h-2.066z"/>
            <path fill="#535353" d="M31.007 61.129h9.906V21.314h-9.906z"/>
            <path fill="#CDCDCD" d="M58.106 59.565L45.401 21.887l-4.453 1.494 12.665 37.747z"/>
            <path fill="#E7E7E7" d="M44.074 25.316a1.21 1.21 0 1 1 .77 2.295 1.21 1.21 0 0 1-.77-2.295M56.429 58.331l-9.582-28.556-2.294.77 9.58 28.556z"/>
            <path fill="#CFCFCF" d="M58.625 61.129l-9.638-28.724 4.453-1.494 9.638 28.724z"/>
            <path fill="#787878" d="M66.169 60.26L55.045 27.108l-2.59.868L63.58 61.129z"/>
            <path stroke="#929292" d="M55.715 29.103l-2.59.87M56.228 30.633l-2.589.87M65.667 58.765l-2.59.869"/>
            <path fill="#FFF" d="M62.709 36.335l7.473 22.534-3.345 1.109-7.473-22.534a1.767 1.767 0 0 1 1.118-2.227 1.767 1.767 0 0 1 2.227 1.118"/>
            <path fill="#535353" d="M63.361 36.007l7.82 23.578-.686.228-7.787-23.478a1.767 1.767 0 0 0-2.227-1.118 1.767 1.767 0 0 0-1.117 2.227l7.786 23.478-.686.227-7.82-23.578a2.492 2.492 0 0 1 1.577-3.14 2.491 2.491 0 0 1 3.14 1.576"/>
            <path fill="#929292" d="M80.804 61.129h26.253V49.008H80.804z"/>
            <path fill="#535353" d="M78.944 49.008h29.975v-4.662H78.944zM89.01 50.111h9.842v1.013c0 .557-.456 1.013-1.013 1.013h-7.816a1.016 1.016 0 0 1-1.013-1.013v-1.013zM.379 66.539H179.09v-5.94H.379zM54.487 132.101h178.711v-5.94H54.487z"/>
            <path fill="#818181" d="M216.017 98.037c-11.156 12.787-8.881 23.428-6.857 27.54-1.283-.318-3.28-8.34-1.196-15.04 1.198-3.852 5.976-11.777 8.053-12.5"/>
            <path fill="#787878" d="M217.219 97.444c-.128-1.562.68-4.449 6.7-4.923-2.251 5.603-5.248 5.512-6.7 4.923M213.566 98.878c-1.37-.76-3.325-3.033-.382-8.305 3.414 4.98 1.677 7.423.382 8.305"/>
            <path fill="#818181" d="M214.881 102.148c.412-1.512 2.158-3.95 7.978-2.34-4.029 4.498-6.814 3.39-7.978 2.34M209.768 104.435c-1.561-.145-4.262-1.444-3.681-7.454 5.125 3.19 4.514 6.127 3.681 7.454"/>
            <path fill="#787878" d="M211.004 107.73c.32-1.534 1.918-4.071 7.823-2.813-3.752 4.73-6.6 3.79-7.823 2.813M206.531 110.513c-1.56-.145-4.262-1.444-3.68-7.454 5.124 3.192 4.513 6.127 3.68 7.454"/>
            <path fill="#818181" d="M209.16 114.764c-.098-1.564.77-4.434 6.797-4.788-2.363 5.557-5.357 5.406-6.797 4.788"/>
            <path fill="#787878" d="M205.855 118.192c-1.549.243-4.487-.353-5.398-6.322 5.752 1.837 5.88 4.831 5.398 6.322M208.65 121.072c-.193-1.555.496-4.473 6.491-5.193-2.019 5.69-5.017 5.722-6.492 5.193"/>
            <path stroke="#787878" stroke-width=".092" d="M208.65 121.072c-.193-1.555.496-4.473 6.491-5.193-2.019 5.69-5.017 5.722-6.492 5.193z"/>
            <path fill="#818181" d="M207.375 125.334c-1.477.524-4.474.48-6.473-5.216 5.99.742 6.67 3.66 6.473 5.216"/>
            <path fill="#9E9E9E" d="M207.779 100.982c-3.167 12.259 1.908 18.597 4.632 20.663-.962.216-4.975-4.468-5.826-9.634-.488-2.969.05-9.853 1.194-11.029"/>
            <path fill="#8E8E8E" d="M208.382 100.184c-.608-.998-1.033-3.194 2.823-5.522.372 4.49-1.657 5.43-2.823 5.522"/>
            <path fill="#9E9E9E" d="M206.425 102.362c-1.169-.048-3.232-.91-3.031-5.412 3.942 2.18 3.6 4.391 3.031 5.412"/>
            <path fill="#8E8E8E" d="M208.395 104.104c-.23-1.146.12-3.356 4.54-4.228-1.184 4.347-3.412 4.539-4.54 4.228"/>
            <path fill="#9E9E9E" d="M205.75 107.338c-1.09.425-3.327.461-4.949-3.742 4.486.416 5.06 2.578 4.948 3.742M207.675 109.123c-.3-1.13-.082-3.357 4.278-4.492-.921 4.41-3.134 4.735-4.278 4.492"/>
            <path fill="#8E8E8E" d="M205.622 112.475c-1.089.425-3.326.462-4.947-3.742 4.485.416 5.059 2.578 4.947 3.742M208.796 114.432c-.588-1.011-.969-3.215 2.933-5.466.282 4.496-1.766 5.397-2.933 5.466"/>
            <path fill="#9E9E9E" d="M207.738 117.824c-.952.679-3.11 1.264-5.715-2.413 4.451-.698 5.538 1.257 5.715 2.413"/>
            <path fill="#8E8E8E" d="M210.564 118.81c-.648-.973-1.163-3.15 2.594-5.634.556 4.47-1.433 5.494-2.594 5.634"/>
            <path fill="#9E9E9E" d="M211.139 122.08c-.81.843-2.824 1.816-6.062-1.316 4.245-1.509 5.675.212 6.062 1.315"/>
            <path fill="#CFCFCF" d="M199.363 108.422c-1.882 6.369-.162 13.455 4.348 17.783h18.112c4.51-4.328 6.23-11.414 4.348-17.783h-26.808z"/>
            <path fill="#B1B1B1" d="M226.58 108.59h-27.206a1.068 1.068 0 0 1-1.065-1.065c0-.586.48-1.065 1.065-1.065h27.207c.585 0 1.064.48 1.064 1.064v.001c0 .585-.48 1.064-1.064 1.064"/>
            <path fill="#818181" d="M235.928 135.827c-2.026-21.11-13.64-28.186-19.112-29.88 1.392-.891 10.389 4.188 14.682 11.834 2.468 4.395 5.558 15.54 4.43 18.046"/>
            <path fill="#787878" d="M235.434 137.427c1.529 1.225 3.454 4.44-1.286 10.31-3.152-6.856-.496-9.498 1.286-10.31M237.27 132.88c1.867-.593 5.608-.414 7.867 6.786-7.453-1.177-8.18-4.853-7.868-6.786"/>
            <path fill="#818181" d="M233.171 131.265c1.02 1.673 1.732 5.351-4.728 9.252-.623-7.52 2.776-9.097 4.728-9.252M235.487 124.66c1.472-1.293 4.972-2.63 9.93 3.06-7.3 1.911-9.44-1.165-9.93-3.06"/>
            <path fill="#787878" d="M231.435 122.95c1.117 1.61 2.048 5.238-4.167 9.518-1.071-7.469 2.227-9.247 4.167-9.518M232.75 116.5c1.471-1.293 4.971-2.63 9.928 3.06-7.3 1.912-9.44-1.165-9.929-3.06"/>
            <path fill="#818181" d="M226.633 115.235c1.504 1.255 3.365 4.507-1.491 10.283-3.015-6.918-.307-9.507 1.49-10.283"/>
            <path fill="#787878" d="M226.359 109.29c1.11-1.615 4.175-3.77 10.377.53-6.608 3.644-9.437 1.188-10.377-.53M221.345 109.353c1.577 1.161 3.633 4.293-.862 10.354-3.43-6.72-.885-9.47.862-10.354"/>
            <path stroke="#787878" stroke-width=".092" d="M221.345 109.353c1.577 1.161 3.633 4.293-.862 10.354-3.43-6.72-.885-9.47.862-10.354z"/>
            <path fill="#818181" d="M218.57 104.536c.794-1.791 3.408-4.475 10.297-1.396-5.82 4.802-9.055 2.91-10.296 1.396"/>
            <path fill="#818181" d="M244.512 102.427c-16.243-4.91-25.008 1.54-27.924 5.075-.237-1.3 6.255-6.419 13.219-7.276 4.003-.492 13.192.605 14.705 2.201"/>
            <path fill="#787878" d="M245.547 103.279c1.37-.76 4.335-1.21 7.242 4.083-6.032.252-7.182-2.517-7.242-4.083M242.738 100.54c.128-1.563 1.397-4.279 7.413-3.765-3.135 5.16-6.077 4.582-7.413 3.764"/>
            <path fill="#818181" d="M240.298 103.083c1.548-.246 4.487.343 5.414 6.31-5.757-1.823-5.892-4.818-5.414-6.31M236.11 99.362c-.508-1.482-.435-4.479 5.282-6.42-.802 5.983-3.73 6.634-5.281 6.42"/>
            <path fill="#787878" d="M233.615 101.843c1.53-.338 4.5.074 5.781 5.975-5.855-1.475-6.169-4.457-5.78-5.975M229.239 98.912c-.51-1.482-.436-4.48 5.28-6.421-.801 5.984-3.728 6.635-5.28 6.42"/>
            <path fill="#818181" d="M226.446 103.056c1.386-.732 4.358-1.123 7.159 4.226-6.036.132-7.13-2.66-7.16-4.226"/>
            <path fill="#787878" d="M221.96 101.453c-.857-1.312-1.521-4.235 3.544-7.52.692 5.997-1.986 7.346-3.543 7.52M220.486 105.184c1.339-.815 4.28-1.386 7.404 3.782-6.018.5-7.28-2.22-7.404-3.782"/>
            <path stroke="#787878" stroke-width=".092" d="M220.486 105.184c1.339-.815 4.28-1.386 7.404 3.782-6.018.5-7.28-2.22-7.404-3.782z"/>
            <path fill="#818181" d="M216.077 105.775c-1.085-1.13-2.28-3.88 2.092-8.046 1.788 5.767-.594 7.587-2.092 8.046"/>
            <path fill="#9E9E9E" d="M247.576 127.642c-11.103-20.355-25.82-22.48-32.048-21.834 1.016-1.494 12.244-.25 19.844 5.592 4.368 3.36 12.262 13.238 12.204 16.242"/>
            <path fill="#8E8E8E" d="M247.767 129.464c2.063.575 5.379 2.979 3.135 10.919-6.114-5.54-4.578-9.338-3.135-10.92"/>
            <path fill="#9E9E9E" d="M247.66 124.103c1.621-1.398 5.461-2.825 10.824 3.444-8 2.018-10.309-1.366-10.825-3.444"/>
            <path fill="#8E8E8E" d="M242.845 124.24c1.743 1.245 4.04 4.637-.78 11.333-3.856-7.294-1.116-10.34.78-11.333"/>
            <path fill="#9E9E9E" d="M242.337 116.603c.925-1.93 3.87-4.779 11.297-1.187-6.518 5.057-9.991 2.883-11.297 1.187M237.528 116.626c1.814 1.138 4.31 4.387-.1 11.359-4.286-7.05-1.733-10.253.1-11.36"/>
            <path fill="#8E8E8E" d="M236.08 109.576c.924-1.931 3.87-4.78 11.296-1.187-6.518 5.057-9.99 2.883-11.297 1.187M229.387 110.931c2.05.616 5.319 3.086 2.917 10.98-6.003-5.66-4.391-9.427-2.917-10.98"/>
            <path fill="#9E9E9E" d="M226.558 105.07c.423-2.098 2.579-5.581 10.66-3.922-5.078 6.5-8.977 5.247-10.66 3.923"/>
            <path fill="#8E8E8E" d="M221.544 107.288c2.085.49 5.497 2.756 3.581 10.781-6.337-5.284-4.958-9.14-3.58-10.78"/>
            <path fill="#9E9E9E" d="M216.686 103.636c.028-2.14 1.503-5.963 9.752-5.826-3.79 7.328-7.854 6.816-9.752 5.826"/>
            <path fill="#F4F4F4" d="M135.558 291.202c0 2.474-7.496 4.48-16.743 4.48-9.247 0-16.743-2.006-16.743-4.48 0-2.474 7.496-4.478 16.743-4.478 9.247 0 16.743 2.005 16.743 4.478"/>
            <path fill="#696969" d="M134.984 266.475c0 .757-7.319 1.371-16.347 1.371-9.028 0-16.347-.614-16.347-1.37 0-.758 7.32-1.372 16.347-1.372 9.028 0 16.347.614 16.347 1.371"/>
            <path fill="#6D6D6D" d="M150.287 170.51c.164 6.774-1.11 12.853-3.162 18.199l-4.061-2.065 3.156 4.266c-2.665 6.064-6.288 11.097-9.801 15.034l-1.271-4.995v6.38c-5.504 5.822-10.397 8.868-10.397 8.868 5.013-31.42 25.536-45.687 25.536-45.687"/>
            <path stroke="#6D6D6D" stroke-width=".86" d="M127.162 209.654s-13.58 34.352-7.612 79.98"/>
            <path stroke="#848484" stroke-width=".86" d="M118.267 275.958s4.145-59.046-22.594-83.38"/>
            <path fill="#7B7B7B" d="M55.098 183.578s48.145-10.407 54.535 30.124c0 0-24.492-26.458-54.535-30.124"/>
            <path fill="#848484" d="M90.88 199.621l-1.198 5.24a110.178 110.178 0 0 0 5.984 3.513l1.013-1.224v1.763c4.068 2.121 8.384 3.89 12.954 4.79 0 0-6.702-33.792-54.535-30.125 0 0 4.324 7.751 13.4 10.282l2.89-2.348-1.92 2.594c.21.048.416.096.63.14 5.224 1.026 11.211 5.284 18.008 9.618l2.773-4.243z"/>
            <path stroke="#848484" stroke-width=".86" d="M117.54 286.972s-4.147-59.046 22.592-83.38"/>
            <path fill="#7B7B7B" d="M180.708 194.591s-48.145-10.407-54.534 30.124c0 0 24.49-26.458 54.534-30.124"/>
            <path fill="#848484" d="M144.928 210.635l1.196 5.239a109.417 109.417 0 0 1-5.984 3.513l-1.013-1.224v1.763c-4.068 2.122-8.383 3.89-12.953 4.788 0 0 6.702-33.79 54.534-30.124 0 0-4.323 7.752-13.398 10.284l-2.891-2.349 1.92 2.594c-.21.048-.417.097-.63.14-5.224 1.027-11.211 5.285-18.008 9.619l-2.773-4.243z"/>
            <path stroke="#848484" stroke-width=".86" d="M120.194 192.69s-3.428 58.841-.492 78.793"/>
            <path fill="#7B7B7B" d="M125.025 199.09l3.335.835c.852-2.55 1.395-5.496 1.817-8.566l-4.33-2.52 4.467 1.49c.68-5.29 1.075-10.847 2.142-15.282.306-1.275.468-2.54.512-3.781l-4.274 2.297 4.235-4.503c-.691-9.685-7.882-17.47-7.882-17.47-4.328 8.464-6.876 56.67-6.243 56.662 4.51-.056 7.172-2.64 8.858-6.498l-2.637-2.665z"/>
            <path fill="#848484" d="M113.87 172.4l3.978-.097-3.985 1.137c.004.596.025 1.203.068 1.825.274 3.974.272 7.844.22 11.456l3.056-.075-3.091 2.209c-.181 10.086-.408 17.778 4.688 19.397l6.244-56.663s-10.787 6.585-11.177 20.812M86.508 160.456c-.164 6.774 1.11 12.853 3.162 18.2l4.061-2.066-3.156 4.266c2.665 6.064 6.288 11.097 9.801 15.034l1.271-4.995v6.38c5.504 5.822 10.397 8.868 10.397 8.868-5.013-31.419-25.536-45.687-25.536-45.687"/>
            <path stroke="#848484" stroke-width=".86" d="M109.633 199.6s13.58 34.352 7.612 79.979"/>
            <path fill="#929292" d="M118.637 267.846c-9.028 0-16.347-.614-16.347-1.37l5.964 24.128s3.455 1.533 10.61 1.533c7.156 0 10.611-1.533 10.611-1.533l5.509-24.129c0 .757-7.319 1.371-16.347 1.371"/>
        </g>
        <g style="mix-blend-mode:screen">
            <path fill="#CFCFCF" d="M351.997 184.878H291.58c-.624 0-1.233.043-1.836.107a17.292 17.292 0 0 0-1.835-.107L203.983 182c-7.73 0-12.46.572-12.46 10.086l-1.336 61.56c0 6.142 6.266 11.122 13.994 11.122h83.728c.624 0 1.233-.044 1.835-.107.603.063 1.212.107 1.836.107h60.417c7.729 0 13.994-4.98 13.994-11.122V196c0-9.106-6.265-11.122-13.994-11.122"/>
            <path fill="#535353" d="M192.411 301.654h-2.78a5.005 5.005 0 0 1 0-10.01h2.78a5.005 5.005 0 0 1 0 10.01M360.568 301.654h2.78a5.005 5.005 0 0 0 0-10.01h-2.78a5.005 5.005 0 0 0 0 10.01"/>
            <path fill="#CFCFCF" d="M303.273 254.748H197.416v39.863H360v-39.863z"/>
            <path fill="#B1B1B1" d="M303.273 254.748H197.416v4.644H360v-4.644z"/>
            <g transform="translate(171 214.654)">
                <mask id="n" fill="#fff">
                    <use xlink:href="#m"/>
                </mask>
                <path fill="#B1B1B1" d="M7.78 34.73v45.228h24.198V26.204c0-11.122-14.297-36.497-28.668-21.194-9.501 10.117 4.47 19.34 4.47 29.72" mask="url(#n)"/>
            </g>
            <g transform="translate(350 214.654)">
                <mask id="p" fill="#fff">
                    <use xlink:href="#o"/>
                </mask>
                <path fill="#B1B1B1" d="M24.198 34.73v45.228H0V26.204C0 15.082 14.298-10.293 28.669 5.01c9.5 10.117-4.471 19.34-4.471 29.72" mask="url(#p)"/>
            </g>
        </g>
    </g>
</svg>
