<?xml version="1.0" encoding="utf-8"?>
<!-- Generator: Adobe Illustrator 19.0.0, SVG Export Plug-In . SVG Version: 6.00 Build 0)  -->
<svg version="1.1" id="Layer_1" xmlns="http://www.w3.org/2000/svg" xmlns:xlink="http://www.w3.org/1999/xlink" x="0px" y="0px"
	 viewBox="-247 249 16 16" style="enable-background:new -247 249 16 16;" xml:space="preserve">
<g>
	<path d="M-244.5,252c0-0.2,0.2-0.3,0.3-0.3h3.4c0.2,0,0.3,0.1,0.4,0.3l1.3,5c0,0.2,0.1,0.3,0.1,0.3c0,0,0.1-0.1,0.1-0.3
		c0,0,0.1-0.7,0.2-1.1l1.1-3.9c0-0.2,0.2-0.3,0.4-0.3h3.3c0.2,0,0.3,0.1,0.3,0.3l1.6,10c0,0.2-0.1,0.3-0.2,0.3h-3.1
		c-0.2,0-0.3-0.1-0.3-0.3l-0.5-5.2c0-0.2,0-0.3-0.1-0.3c0,0-0.1,0.1-0.1,0.3c0,0-0.1,0.4-0.2,0.8l-1.4,4.5c-0.1,0.2-0.2,0.3-0.4,0.3
		h-1.7c-0.2,0-0.3-0.1-0.4-0.3l-1.2-3.9c0-0.2-0.1-0.4-0.2-0.5c0,0-0.2-0.6-0.2-1c-0.1,0-0.1,0.1-0.2,0.3c0,0,0,0.6-0.1,1l-0.4,4.2
		c0,0.2-0.2,0.3-0.3,0.3h-3.1c-0.2,0-0.3-0.1-0.2-0.3L-244.5,252z"/>
</g>
</svg>
